<svg width="27" height="26" viewBox="0 0 27 26" fill="none" xmlns="http://www.w3.org/2000/svg">
<path d="M17.5994 7.78647C17.4511 7.5397 17.238 7.33478 16.9816 7.19219C16.7252 7.0496 16.4344 6.97435 16.1383 6.97397H10.862C10.5659 6.97435 10.2751 7.0496 10.0187 7.19219C9.7623 7.33478 9.54925 7.5397 9.40089 7.78647L6.7612 12.1875C6.61381 12.4348 6.53625 12.7149 6.53625 13C6.53625 13.2851 6.61381 13.5652 6.7612 13.8125L9.40045 18.2136C9.5488 18.4603 9.76185 18.6652 10.0183 18.8078C10.2747 18.9504 10.5655 19.0257 10.8616 19.0261H16.1378C16.4339 19.0257 16.7248 18.9504 16.9812 18.8078C17.2376 18.6652 17.4506 18.4603 17.599 18.2136L20.2387 13.8125C20.3861 13.5652 20.4636 13.2851 20.4636 13C20.4636 12.7149 20.3861 12.4348 20.2387 12.1875L17.5994 7.78647ZM16.4294 11.758L13.0544 15.008C12.949 15.1095 12.8059 15.1666 12.6568 15.1666C12.5076 15.1666 12.3646 15.1095 12.2591 15.008L10.5716 13.383C10.4691 13.2808 10.4124 13.144 10.4137 13.002C10.415 12.8599 10.4741 12.7241 10.5784 12.6237C10.6827 12.5232 10.8238 12.4663 10.9713 12.465C11.1188 12.4638 11.2609 12.5184 11.3669 12.6171L12.6562 13.8591L15.6335 10.9921C15.7396 10.8934 15.8817 10.8388 16.0292 10.84C16.1767 10.8413 16.3177 10.8982 16.422 10.9987C16.5263 11.0991 16.5855 11.2349 16.5868 11.377C16.588 11.519 16.5319 11.6558 16.4294 11.758Z" fill="#A3A3A3"/>
<path d="M13.5 1.08334C11.0525 1.08334 8.65988 1.78224 6.62482 3.09166C4.58977 4.40108 3.00363 6.26221 2.067 8.4397C1.13036 10.6172 0.885296 13.0132 1.36279 15.3248C1.84028 17.6364 3.01888 19.7598 4.74956 21.4264C6.48023 23.0929 8.68525 24.2279 11.0858 24.6877C13.4863 25.1475 15.9745 24.9115 18.2357 24.0096C20.4969 23.1076 22.4297 21.5802 23.7894 19.6206C25.1492 17.6609 25.875 15.3569 25.875 13C25.875 9.83951 24.5712 6.80846 22.2505 4.57365C19.9297 2.33885 16.7821 1.08334 13.5 1.08334ZM21.213 14.3542L18.5738 18.7552C18.3263 19.1665 17.9712 19.508 17.5437 19.7456C17.1163 19.9833 16.6316 20.1087 16.138 20.1094H10.8618C10.3682 20.1087 9.88349 19.9833 9.45605 19.7456C9.02861 19.508 8.67344 19.1665 8.42603 18.7552L5.78701 14.3542C5.54137 13.9421 5.41212 13.4752 5.41212 13C5.41212 12.5248 5.54137 12.058 5.78701 11.6458L8.42626 7.2448C8.67366 6.83355 9.02884 6.49204 9.45627 6.2544C9.88371 6.01676 10.3684 5.89133 10.862 5.89064H16.1382C16.6318 5.89133 17.1165 6.01676 17.544 6.2544C17.9714 6.49204 18.3266 6.83355 18.574 7.2448L21.213 11.6458C21.4586 12.058 21.5879 12.5248 21.5879 13C21.5879 13.4752 21.4586 13.9421 21.213 14.3542Z" fill="#A3A3A3"/>
</svg>
