<svg width="12" height="7" viewBox="0 0 12 7" fill="none" xmlns="http://www.w3.org/2000/svg">
<path d="M6.66042 6.55574L11.5555 1.6606C11.6688 1.54738 11.7312 1.39625 11.7312 1.23509C11.7312 1.07394 11.6688 0.922802 11.5555 0.809583L11.1951 0.44909C10.9602 0.214515 10.5785 0.214515 10.344 0.44909L6.23348 4.55966L2.11835 0.444529C2.00504 0.331311 1.854 0.268799 1.69293 0.268799C1.53169 0.268799 1.38064 0.331311 1.26725 0.444529L0.906932 0.805022C0.793624 0.91833 0.731201 1.06938 0.731201 1.23053C0.731201 1.39168 0.793624 1.54282 0.906932 1.65604L5.80645 6.55574C5.92012 6.66923 6.07188 6.73156 6.23321 6.7312C6.39517 6.73156 6.54684 6.66923 6.66042 6.55574Z" fill="#535559"/>
</svg>
