<svg width="31" height="31" viewBox="0 0 31 31" fill="none" xmlns="http://www.w3.org/2000/svg">
<path fill-rule="evenodd" clip-rule="evenodd" d="M8.69935 26.6038V28.0105C8.69935 28.9918 9.49663 29.7891 10.478 29.7891C11.4593 29.7891 12.2566 28.9918 12.2566 28.0105V26.6038C12.8127 26.7065 13.4094 26.5428 13.8386 26.1127C14.5332 25.419 14.5332 24.2924 13.8386 23.5978L11.7354 21.4946C11.0408 20.8 9.91513 20.8 9.22054 21.4946L7.11738 23.5978C6.42279 24.2924 6.42279 25.419 7.11738 26.1127C7.54751 26.5428 8.14329 26.7065 8.69935 26.6038Z" fill="#A3A3A3"/>
<path fill-rule="evenodd" clip-rule="evenodd" d="M18.8004 26.6038V28.0105C18.8004 28.9918 19.5977 29.7891 20.579 29.7891C21.5604 29.7891 22.3577 28.9918 22.3577 28.0105V26.6038C22.9137 26.7065 23.5105 26.5428 23.9406 26.1127C24.6342 25.419 24.6342 24.2924 23.9406 23.5978L21.8365 21.4946C21.1419 20.8 20.0162 20.8 19.3216 21.4946L17.2185 23.5978C16.5239 24.2924 16.5239 25.419 17.2185 26.1127C17.6486 26.5428 18.2444 26.7065 18.8004 26.6038Z" fill="#A3A3A3"/>
<path fill-rule="evenodd" clip-rule="evenodd" d="M15.5 1.21094C10.0198 1.21094 5.57031 5.66041 5.57031 11.1406C5.57031 16.6208 10.0198 21.0703 15.5 21.0703C20.9802 21.0703 25.4297 16.6208 25.4297 11.1406C25.4297 5.66041 20.9802 1.21094 15.5 1.21094ZM15.5 2.66406C20.1781 2.66406 23.9766 6.46253 23.9766 11.1406C23.9766 15.8187 20.1781 19.6172 15.5 19.6172C10.8219 19.6172 7.02344 15.8187 7.02344 11.1406C7.02344 6.46253 10.8219 2.66406 15.5 2.66406ZM15.5 3.3945C11.2249 3.3945 7.75387 6.86553 7.75387 11.1406C7.75387 15.4157 11.2249 18.8868 15.5 18.8868C19.7751 18.8868 23.2461 15.4157 23.2461 11.1406C23.2461 6.86553 19.7751 3.3945 15.5 3.3945ZM16.2266 11.812V7.76066C16.2266 7.35959 15.9011 7.03409 15.5 7.03409C15.0989 7.03409 14.7734 7.35959 14.7734 7.76066V11.3973L12.4329 12.7487C12.0861 12.9493 11.967 13.3939 12.1665 13.7408C12.3671 14.0885 12.8127 14.2077 13.1595 14.0072L15.8594 12.4475C15.8633 12.4455 15.8662 12.4436 15.8701 12.4417C15.9815 12.3758 16.0687 12.2847 16.1297 12.1801C16.1897 12.0755 16.2256 11.9534 16.2266 11.8246C16.2266 11.8207 16.2266 11.8168 16.2266 11.812Z" fill="#A3A3A3"/>
</svg>
