<svg width="30" height="30" viewBox="0 0 30 30" fill="none" xmlns="http://www.w3.org/2000/svg">
<g clip-path="url(#clip0_33_166)">
<path d="M28.9656 19.971C28.6116 19.389 27.8916 19.143 27.2556 19.377L16.5816 22.791C16.1496 22.947 15.6756 23.001 15.1896 22.941L13.1316 22.665C12.8856 22.629 12.7176 22.407 12.7476 22.161C12.7776 21.915 13.0056 21.735 13.2516 21.771L15.3096 22.047C15.6036 22.083 15.8856 22.059 16.1496 21.987C16.1616 21.981 16.1676 21.981 16.1796 21.975L16.2876 21.939C16.9476 21.699 17.4576 21.123 17.5956 20.391C17.7156 19.737 17.2896 19.017 16.6596 18.813L13.2636 17.709C12.9096 17.595 12.5316 17.583 12.1656 17.673L7.80359 18.747V26.571L16.1256 28.941C16.8876 29.157 17.7036 29.031 18.3696 28.599L28.4736 21.945C28.8156 21.735 29.0436 21.423 29.1336 21.051C29.2236 20.679 29.1636 20.295 28.9656 19.971Z" fill="#A3A3A3"/>
<path d="M6.42956 16.857H1.29956C1.03556 16.857 0.825562 17.067 0.825562 17.331V28.077C0.825562 28.335 1.03556 28.551 1.29956 28.551H6.42956C6.68756 28.551 6.90356 28.335 6.90356 28.077V17.331C6.90356 17.067 6.68756 16.857 6.42956 16.857ZM3.86156 26.487C3.17156 26.487 2.61956 25.923 2.61956 25.239C2.61956 24.549 3.17156 23.997 3.86156 23.997C4.54556 23.997 5.10956 24.549 5.10956 25.239C5.10956 25.923 4.54556 26.487 3.86156 26.487Z" fill="#A3A3A3"/>
<path d="M20.3616 17.613C23.6496 17.613 26.3196 14.937 26.3196 11.643C26.3196 9.63299 25.3176 7.85699 23.7876 6.77699V5.08499C23.7876 4.67099 23.448 4.32959 23.0358 4.32059L23.8542 2.16239C23.8968 2.04959 23.8404 1.92359 23.7276 1.88099L21.3312 0.970791C21.2184 0.928191 21.0924 0.984591 21.0498 1.09739L20.361 2.91599L19.8306 4.31699H18.87L19.8816 1.64099L19.6716 1.09499C19.6296 0.986991 19.5036 0.926991 19.3896 0.968991L16.9896 1.88099C16.8756 1.92299 16.8216 2.04899 16.8636 2.16299L17.6844 4.32179C17.265 4.33559 16.9296 4.67339 16.9296 5.08499V6.77699C15.3996 7.85699 14.3976 9.63299 14.3976 11.643C14.3976 14.937 17.0736 17.613 20.3616 17.613ZM21.6576 14.3922H19.1124C18.864 14.3922 18.6624 14.1906 18.6624 13.9422C18.6624 13.6938 18.864 13.4922 19.1124 13.4922H20.0238V10.4412L19.3818 11.0832C19.206 11.259 18.921 11.259 18.7452 11.0832C18.5694 10.9074 18.5694 10.6224 18.7452 10.4466L20.1558 9.03599C20.2848 8.90759 20.478 8.86859 20.646 8.93819C20.814 9.00779 20.9238 9.17219 20.9238 9.35399V13.4916H21.6582C21.9066 13.4916 22.1082 13.6932 22.1082 13.9416C22.1082 14.19 21.906 14.3922 21.6576 14.3922ZM22.8876 6.25499C22.1196 5.88899 21.2676 5.68499 20.3616 5.68499C19.4556 5.68499 18.5976 5.89499 17.8296 6.25499V5.21699H22.8876V6.25499Z" fill="#A3A3A3"/>
</g>
<defs>
<clipPath id="clip0_33_166">
<rect width="30" height="30" fill="white"/>
</clipPath>
</defs>
</svg>
