<svg width="42" height="42" viewBox="0 0 42 42" fill="none" xmlns="http://www.w3.org/2000/svg">
<g clip-path="url(#clip0_344_269)">
<path d="M16.0778 31.1689C16.0778 28.4084 15.038 25.7436 13.1307 23.748C6.21023 16.5072 9.7137 4.27909 19.492 2.00658C19.7168 1.95433 19.9406 1.90979 20.1641 1.86902C18.3987 1.5363 16.5088 1.55607 14.5701 2.00658C9.91796 3.08784 6.13123 6.83346 4.99699 11.4729C3.82804 16.254 5.28992 20.694 8.20892 23.748C10.1162 25.7435 11.1561 28.4084 11.1561 31.1689C11.1561 32.981 12.6252 34.4531 14.4373 34.4531H19.3592C17.5469 34.4531 16.0778 32.9811 16.0778 31.1689Z" fill="#3F236A"/>
<path d="M20.9998 38.7188H14.4373C13.5311 38.7188 12.7966 39.4533 12.7966 40.3594C12.7966 41.2655 13.5311 42 14.4373 42H20.9998C21.9059 42 22.6404 41.2655 22.6404 40.3594C22.6404 39.4533 21.9059 38.7188 20.9998 38.7188Z" fill="#AC7DF7"/>
<path d="M32.9646 6.08198C33.6052 6.72265 34.6442 6.72265 35.2848 6.08198L38.5661 2.80073C39.2067 2.16007 39.2067 1.12122 38.5661 0.48056C37.9253 -0.160187 36.8865 -0.160187 36.2458 0.48056L32.9646 3.76181C32.324 4.40247 32.324 5.44132 32.9646 6.08198Z" fill="#AC7DF7"/>
<path d="M37.406 13.125C38.3121 13.125 39.0466 12.3905 39.0466 11.4844C39.0466 10.5783 38.3121 9.84375 37.406 9.84375C36.4999 9.84375 35.7654 10.5783 35.7654 11.4844C35.7654 12.3905 36.4999 13.125 37.406 13.125Z" fill="#AC7DF7"/>
<path d="M18.8785 7.04288C18.2377 6.40214 17.1989 6.40214 16.5582 7.04288C15.9176 7.68363 15.9176 8.72239 16.5582 9.36305L19.8395 12.6443C20.4802 13.285 21.5191 13.285 22.1596 12.6443L28.1592 6.64478C28.7996 6.00445 28.7999 4.96519 28.1592 4.32461C24.521 0.686444 19.302 -0.777567 14.1986 0.408522C8.92644 1.63374 4.68904 5.8239 3.4032 11.0832C2.13097 16.2864 3.62763 21.3294 7.02274 24.8815C8.63006 26.5631 9.51526 28.796 9.51526 31.1688C9.51526 33.8843 11.7232 36.0936 14.4371 36.0936H20.9996C23.7136 36.0936 25.9215 33.8856 25.9215 31.1717C25.9215 28.8337 26.845 26.5592 28.5219 24.7674C32.125 20.9174 33.2492 15.6738 31.9835 10.9411C31.7494 10.0658 30.85 9.54598 29.9747 9.7801C29.0994 10.0142 28.5796 10.9136 28.8137 11.789C29.8227 15.5608 28.8618 19.6023 26.1262 22.5253C23.8783 24.9273 22.6403 27.998 22.6403 31.1717C22.6403 32.0764 21.9043 32.8123 20.9996 32.8123H14.4371C13.5325 32.8123 12.7965 32.075 12.7965 31.1688C12.7965 27.9475 11.5884 24.9095 9.39476 22.6143C6.64532 19.7377 5.62321 15.8187 6.59052 11.8624C7.58523 7.79371 10.8631 4.55233 14.9414 3.60454C18.3815 2.80507 21.8818 3.53826 24.5958 5.56771L20.9996 9.16396L18.8785 7.04288Z" fill="#9150F8"/>
</g>
<defs>
<clipPath id="clip0_344_269">
<rect width="42" height="42" fill="white"/>
</clipPath>
</defs>
</svg>
