<svg width="32" height="32" viewBox="0 0 32 32" fill="none" xmlns="http://www.w3.org/2000/svg">
<path d="M7.32444 12.1113C7.32419 12.1211 14.2963 16.2679 14.2996 16.2748C17.2115 14.5395 23.3908 10.8455 26.2601 9.13738L14.2996 2L2.33911 9.13736L7.25411 12.0734L7.32444 12.1113Z" fill="#A3A3A3"/>
<path d="M14.2996 17.448C14.2026 17.4473 14.1076 17.4212 14.0238 17.3723L7.01621 13.1873L2.34448 15.9719C5.19853 17.6753 11.4014 21.3788 14.2996 23.1093C17.2099 21.3713 23.3868 17.6837 26.2546 15.9719L21.5883 13.1873L14.5753 17.3723C14.4916 17.4211 14.3965 17.4472 14.2996 17.448Z" fill="#A3A3A3"/>
<path d="M23.6754 21.2655L21.5829 20.0164L14.5753 24.2015C14.4918 24.2507 14.3965 24.2766 14.2996 24.2766C14.2026 24.2766 14.1074 24.2507 14.0238 24.2015L7.01621 20.0164L2.34448 22.8065L14.2996 29.9384L20.5177 26.2292C20.4724 25.178 20.7509 24.1382 21.3156 23.2505C21.8804 22.3627 22.7041 21.6698 23.6754 21.2655Z" fill="#A3A3A3"/>
<path d="M25.6272 21.963C24.5577 21.9639 23.5322 22.3891 22.776 23.1454C22.0197 23.9017 21.5944 24.9271 21.5935 25.9966C21.7855 31.3354 29.4732 31.3335 29.6609 25.9966C29.6609 24.9268 29.2359 23.9008 28.4794 23.1444C27.723 22.3879 26.697 21.963 25.6272 21.963ZM27.7684 26.5374H23.4914C23.3497 26.5348 23.2146 26.4767 23.1153 26.3756C23.016 26.2745 22.9603 26.1384 22.9603 25.9966C22.9603 25.8549 23.016 25.7188 23.1153 25.6177C23.2146 25.5166 23.3497 25.4585 23.4914 25.4559H27.7684C27.9104 25.4581 28.0458 25.516 28.1454 25.6172C28.2451 25.7184 28.3009 25.8547 28.3009 25.9966C28.3009 26.1386 28.2451 26.2749 28.1454 26.3761C28.0458 26.4773 27.9104 26.5352 27.7684 26.5374Z" fill="#A3A3A3"/>
</svg>
