<svg width="38" height="38" viewBox="0 0 38 38" fill="none" xmlns="http://www.w3.org/2000/svg">
<g clip-path="url(#clip0_344_289)" filter="url(#filter0_d_344_289)">
<path d="M11.6311 8.10156L9.03206 8.30236C8.30885 8.35826 7.66473 8.7373 7.26477 9.34227L4.26732 13.8758C3.96398 14.3345 3.91576 14.9087 4.13824 15.4117C4.36077 15.9146 4.81809 16.2651 5.36155 16.3493L7.74131 16.7179C8.29801 13.7636 9.63065 10.8166 11.6311 8.10156Z" fill="#9150F8"/>
<path d="M17.282 26.2585L17.6506 28.6383C17.7348 29.1817 18.0853 29.639 18.5882 29.8615C18.7974 29.9541 19.0189 29.9998 19.2393 29.9998C19.5488 29.9998 19.8562 29.9096 20.1242 29.7324L24.6578 26.735C25.2627 26.335 25.6418 25.6908 25.6976 24.9677L25.8984 22.3687C23.1833 24.3692 20.2363 25.7018 17.282 26.2585Z" fill="#9150F8"/>
<path d="M16.3871 24.6094C16.4697 24.6094 16.5528 24.6026 16.6357 24.5888C17.8734 24.3818 19.0664 24.0332 20.2044 23.5769L10.4234 13.7959C9.96708 14.9338 9.61845 16.1268 9.4115 17.3646C9.32993 17.8525 9.49359 18.3495 9.84333 18.6993L15.3009 24.157C15.5913 24.4473 15.9833 24.6094 16.3871 24.6094Z" fill="#9150F8"/>
<path d="M31.6079 13.3009C34.0014 8.67351 34.09 3.78354 33.9649 1.4902C33.9221 0.704409 33.2956 0.0779291 32.5098 0.0350974C32.1363 0.0147069 31.6938 0 31.195 0C28.6306 0 24.573 0.388415 20.6991 2.39213C17.6205 3.98452 13.5836 7.4908 11.2019 12.0987C11.23 12.1207 11.2575 12.144 11.2834 12.1699L21.8302 22.7167C21.8561 22.7426 21.8794 22.77 21.9013 22.7981C26.5092 20.4164 30.0155 16.3795 31.6079 13.3009ZM21.4431 6.34214C23.1565 4.62881 25.9444 4.62864 27.6578 6.34214C28.4879 7.17211 28.9449 8.27572 28.9449 9.44952C28.9449 10.6233 28.4879 11.7269 27.6578 12.5569C26.8013 13.4135 25.6757 13.8418 24.5505 13.842C23.425 13.842 22.2999 13.4137 21.4431 12.5569C20.6131 11.7269 20.156 10.6233 20.156 9.44952C20.156 8.27572 20.6131 7.17211 21.4431 6.34214Z" fill="#9150F8"/>
<path d="M22.6861 11.3138C23.7141 12.3419 25.387 12.3419 26.415 11.3138C26.913 10.8158 27.1873 10.1537 27.1873 9.44939C27.1873 8.7451 26.913 8.08299 26.415 7.585C25.901 7.07096 25.2258 6.81396 24.5505 6.81396C23.8754 6.81396 23.2001 7.07096 22.6861 7.585C22.1882 8.08299 21.9138 8.7451 21.9138 9.44939C21.9138 10.1537 22.1881 10.8159 22.6861 11.3138Z" fill="#9150F8"/>
<path d="M4.89676 24.7226C5.1217 24.7226 5.34664 24.6368 5.5182 24.4651L8.38772 21.5956C8.73096 21.2524 8.73096 20.6959 8.38772 20.3526C8.04453 20.0094 7.48801 20.0094 7.14477 20.3526L4.27525 23.2222C3.93201 23.5654 3.93201 24.1219 4.27525 24.4651C4.44687 24.6367 4.67182 24.7226 4.89676 24.7226Z" fill="#9150F8"/>
<path d="M11.0175 22.9825C10.6743 22.6393 10.1178 22.6393 9.77457 22.9825L4.25768 28.4994C3.91443 28.8427 3.91443 29.3991 4.25768 29.7424C4.4293 29.914 4.65424 29.9998 4.87918 29.9998C5.10412 29.9998 5.32906 29.914 5.50063 29.7423L11.0175 24.2255C11.3608 23.8822 11.3608 23.3258 11.0175 22.9825Z" fill="#9150F8"/>
<path d="M12.4042 25.6124L9.53478 28.4819C9.19153 28.8252 9.19153 29.3816 9.53478 29.7249C9.7064 29.8965 9.93134 29.9823 10.1562 29.9823C10.3811 29.9823 10.6061 29.8966 10.7777 29.7249L13.6472 26.8554C13.9904 26.5121 13.9904 25.9557 13.6472 25.6124C13.304 25.2692 12.7475 25.2692 12.4042 25.6124Z" fill="#9150F8"/>
</g>
<defs>
<filter id="filter0_d_344_289" x="0" y="0" width="38" height="38" filterUnits="userSpaceOnUse" color-interpolation-filters="sRGB">
<feFlood flood-opacity="0" result="BackgroundImageFix"/>
<feColorMatrix in="SourceAlpha" type="matrix" values="0 0 0 0 0 0 0 0 0 0 0 0 0 0 0 0 0 0 127 0" result="hardAlpha"/>
<feOffset dy="4"/>
<feGaussianBlur stdDeviation="2"/>
<feComposite in2="hardAlpha" operator="out"/>
<feColorMatrix type="matrix" values="0 0 0 0 0 0 0 0 0 0 0 0 0 0 0 0 0 0 0.25 0"/>
<feBlend mode="normal" in2="BackgroundImageFix" result="effect1_dropShadow_344_289"/>
<feBlend mode="normal" in="SourceGraphic" in2="effect1_dropShadow_344_289" result="shape"/>
</filter>
<clipPath id="clip0_344_289">
<rect width="30" height="30" fill="white" transform="translate(4)"/>
</clipPath>
</defs>
</svg>
