<svg width="36" height="37" viewBox="0 0 36 37" fill="none" xmlns="http://www.w3.org/2000/svg">
<path d="M20.11 29.8944H7.33048C7.01196 29.8944 6.75269 29.6352 6.75269 29.3165V27.2707C6.75269 26.952 7.01196 26.6927 7.33048 26.6927H16.052C16.3521 27.1257 16.6919 27.5325 17.0695 27.9102C17.8775 28.7183 18.8187 29.3528 19.8668 29.7962C19.9475 29.8301 20.0286 29.863 20.11 29.8944Z" fill="#A3A3A3"/>
<path d="M15.6755 26.0993H5.07779C4.75928 26.0993 4.5 25.8401 4.5 25.5215V23.476C4.5 23.1573 4.75928 22.898 5.07779 22.898H14.5742C14.6786 23.6595 14.8823 24.4006 15.1836 25.1129C15.3274 25.4533 15.4916 25.7824 15.6755 26.0993Z" fill="#A3A3A3"/>
<path d="M14.492 21.6872C14.492 21.8941 14.499 22.1 14.5133 22.3046H7.33048C7.01196 22.3046 6.75269 22.0453 6.75269 21.7268V19.6809C6.75269 19.3624 7.01196 19.1031 7.33048 19.1031H14.8773C14.6212 19.9359 14.492 20.8015 14.492 21.6872Z" fill="#A3A3A3"/>
<path d="M23.8592 13.4991C23.8539 13.4986 23.8488 13.4984 23.8436 13.4981C23.6615 13.4858 23.4778 13.4798 23.2927 13.4798C21.3723 13.4798 19.6037 14.1427 18.2042 15.252C17.0157 16.1933 16.0934 17.4565 15.5696 18.9086C15.2561 19.7766 15.0854 20.7121 15.0854 21.687C15.0854 21.9855 15.1014 22.2805 15.1329 22.5709C15.2771 23.9126 15.746 25.1585 16.4594 26.2283C17.8932 28.379 20.3144 29.818 23.0703 29.8914C23.0756 29.8916 23.0807 29.8916 23.086 29.8918C23.1547 29.8934 23.2238 29.8944 23.2929 29.8944C27.8183 29.8944 31.5003 26.2125 31.5003 21.687C31.5001 17.3519 28.1216 13.7909 23.8592 13.4991ZM27.864 26.2582C27.2703 26.8518 26.5789 27.318 25.8092 27.6437C25.012 27.9809 24.1653 28.1519 23.2927 28.1519C22.4199 28.1519 21.5735 27.9809 20.7762 27.6437C20.0063 27.3182 19.3149 26.8518 18.7213 26.2582C18.1277 25.6646 17.6617 24.9733 17.3362 24.2035C16.9988 23.4063 16.8278 22.5596 16.8278 21.687C16.8278 20.8143 16.9988 19.9677 17.3362 19.1704C17.6617 18.4006 18.1279 17.7093 18.7213 17.1157C19.3149 16.522 20.0063 16.0559 20.7762 15.7303C21.5734 15.3932 22.4199 15.2221 23.2927 15.2221C24.1653 15.2221 25.0118 15.3932 25.8092 15.7303C26.5789 16.0559 27.2703 16.5222 27.864 17.1157C28.4577 17.7093 28.9237 18.4006 29.2492 19.1704C29.5863 19.9675 29.7574 20.8143 29.7574 21.687C29.7574 22.5596 29.5863 23.4062 29.2492 24.2035C28.9237 24.9733 28.4577 25.6646 27.864 26.2582Z" fill="#A3A3A3"/>
<path d="M23.2926 15.8158C20.0552 15.8158 17.4211 18.4495 17.4211 21.6872C17.4211 24.9246 20.055 27.5585 23.2926 27.5585C26.53 27.5585 29.1639 24.9248 29.1639 21.6872C29.1639 18.4495 26.53 15.8158 23.2926 15.8158ZM24.3854 22.7799L23.2926 24.7782L22.1996 22.7799L20.2015 21.6871L22.1996 20.5941L23.2926 18.5958L24.3854 20.5941L26.3837 21.6871L24.3854 22.7799Z" fill="#A3A3A3"/>
<path d="M21.3248 8.16279V10.4743C21.3248 10.7199 21.1253 10.9194 20.8797 10.9194H4.94532C4.69976 10.9194 4.50024 10.7199 4.50024 10.4743V8.16279C4.50024 7.9174 4.69976 7.71771 4.94532 7.71771H20.8797C21.1253 7.71789 21.3248 7.91758 21.3248 8.16279Z" fill="#A3A3A3"/>
<path d="M23.5775 12.0908V12.8908C23.4829 12.8876 23.388 12.8862 23.2929 12.8862C22.105 12.8862 20.9522 13.1189 19.8671 13.5781C19.1685 13.8736 18.5173 14.254 17.9215 14.7145H7.33072C7.01221 14.7145 6.75293 14.4552 6.75293 14.1365V12.0908C6.75293 11.7723 7.01221 11.513 7.33072 11.513H22.9999C23.3182 11.513 23.5775 11.7723 23.5775 12.0908Z" fill="#A3A3A3"/>
<path d="M17.2296 15.3078C17.1758 15.3591 17.1223 15.4112 17.0696 15.4639C16.2615 16.272 15.627 17.2131 15.1836 18.2613C15.1488 18.3435 15.1153 18.4263 15.0831 18.5095H5.07779C4.75928 18.5095 4.5 18.2502 4.5 17.9317V15.8858C4.5 15.5673 4.75928 15.308 5.07779 15.308H17.2296V15.3078Z" fill="#A3A3A3"/>
</svg>
