<svg width="29" height="29" viewBox="0 0 29 29" fill="none" xmlns="http://www.w3.org/2000/svg">
<path d="M9.1053 6.02505L6.6787 3.59839C5.33866 5.18067 4.46912 7.17305 4.28796 9.35808H7.72137C7.87737 8.11238 8.37018 6.97008 9.1053 6.02505Z" fill="#A3A3A3"/>
<path d="M21.1136 2.39073C19.5314 1.0507 17.539 0.181161 15.354 0V3.43341C16.5996 3.5894 17.742 4.08221 18.687 4.81739L21.1136 2.39073Z" fill="#A3A3A3"/>
<path d="M13.646 3.43341V0C11.461 0.181161 9.46858 1.0507 7.88635 2.39073L10.313 4.81739C11.258 4.08221 12.4003 3.5894 13.646 3.43341Z" fill="#A3A3A3"/>
<path d="M7.88635 18.0334C9.46864 19.3734 11.461 20.243 13.646 20.4241V16.9907C12.4003 16.8347 11.258 16.3419 10.313 15.6068L7.88635 18.0334Z" fill="#A3A3A3"/>
<path d="M18.687 15.6068C17.742 16.3419 16.5997 16.8347 15.354 16.9907V20.4241C17.539 20.243 19.5314 19.3734 21.1136 18.0334L18.687 15.6068Z" fill="#A3A3A3"/>
<path d="M7.72137 11.0661H4.28796C4.46912 13.2511 5.33866 15.2435 6.6787 16.8257L9.1053 14.3991C8.37018 13.4541 7.87737 12.3117 7.72137 11.0661Z" fill="#A3A3A3"/>
<path d="M21.2786 11.0661C21.1226 12.3118 20.6298 13.4541 19.8947 14.3991L22.3213 16.8257C23.6613 15.2435 24.5308 13.2511 24.712 11.0661H21.2786Z" fill="#A3A3A3"/>
<path d="M21.2787 9.35808H24.7121C24.5309 7.17305 23.6614 5.18068 22.3214 3.59845L19.8948 6.02511C20.6299 6.97008 21.1227 8.11239 21.2787 9.35808Z" fill="#A3A3A3"/>
<path d="M19.6239 10.2121C19.6239 7.38675 17.3253 5.08813 14.5 5.08813C7.71166 5.34576 7.71348 15.0795 14.5 15.3361C17.3253 15.3361 19.6239 13.0375 19.6239 10.2121Z" fill="#A3A3A3"/>
<path d="M3.39807 22.168H5.41658V24.73H3.39807V22.168Z" fill="#A3A3A3"/>
<path d="M7.43518 22.168H9.45369V24.73H7.43518V22.168Z" fill="#A3A3A3"/>
<path d="M11.4722 22.168H13.4907V24.73H11.4722V22.168Z" fill="#A3A3A3"/>
<path d="M15.5093 22.168H17.5278V24.73H15.5093V22.168Z" fill="#A3A3A3"/>
<path d="M19.5464 22.168H21.5649V24.73H19.5464V22.168Z" fill="#A3A3A3"/>
<path d="M23.5834 22.168H25.6019V24.73H23.5834V22.168Z" fill="#A3A3A3"/>
<path d="M3.39807 26.438H5.41658V29H3.39807V26.438Z" fill="#A3A3A3"/>
<path d="M7.43518 26.438H9.45369V29H7.43518V26.438Z" fill="#A3A3A3"/>
<path d="M11.4722 26.438H13.4907V29H11.4722V26.438Z" fill="#A3A3A3"/>
<path d="M15.5093 26.438H17.5278V29H15.5093V26.438Z" fill="#A3A3A3"/>
<path d="M19.5464 26.438H21.5649V29H19.5464V26.438Z" fill="#A3A3A3"/>
<path d="M23.5834 26.438H25.6019V29H23.5834V26.438Z" fill="#A3A3A3"/>
</svg>
