<svg width="35" height="35" viewBox="0 0 35 35" fill="none" xmlns="http://www.w3.org/2000/svg">
<path d="M13.3984 14.7656C13.7757 14.7656 14.082 14.4593 14.082 14.082C14.082 13.7029 13.7725 13.3984 13.3984 13.3984C13.0211 13.3984 12.7148 13.7047 12.7148 14.082C12.7148 14.4596 13.0211 14.7656 13.3984 14.7656Z" fill="#9150F8"/>
<path d="M17.5 5.87891C17.8776 5.87891 18.1836 5.57289 18.1836 5.19531V0.683594C18.1836 0.306015 17.8776 0 17.5 0C17.1224 0 16.8164 0.306015 16.8164 0.683594V5.19531C16.8164 5.57289 17.1224 5.87891 17.5 5.87891Z" fill="#9150F8"/>
<path d="M16.8164 29.8047V34.3164C16.8164 34.694 17.1224 35 17.5 35C17.8776 35 18.1836 34.694 18.1836 34.3164V29.8047C18.1836 29.4271 17.8776 29.1211 17.5 29.1211C17.1224 29.1211 16.8164 29.4271 16.8164 29.8047Z" fill="#9150F8"/>
<path d="M6.94864 9.28223C7.21567 9.54926 7.64825 9.54926 7.91555 9.28223C8.18231 9.01546 8.18231 8.58261 7.91555 8.31558L5.01482 5.41512C4.74805 5.14809 4.3152 5.14809 4.04817 5.41512C3.78114 5.68214 3.78114 6.115 4.04817 6.38176L6.94864 9.28223Z" fill="#9150F8"/>
<path d="M27.0848 26.4008C26.8178 26.6678 26.8178 27.1006 27.0848 27.3677L29.9853 30.2681C30.252 30.5349 30.6849 30.5352 30.9519 30.2681C31.2189 30.0011 31.2189 29.5683 30.9519 29.3012L28.0514 26.4008C27.7844 26.134 27.3518 26.134 27.0848 26.4008Z" fill="#9150F8"/>
<path d="M28.0514 9.28223L30.9519 6.38176C31.2189 6.115 31.2189 5.68214 30.9519 5.41512C30.6849 5.14809 30.2523 5.14809 29.9853 5.41512L27.0848 8.31558C26.8178 8.58261 26.8178 9.01546 27.0848 9.28223C27.3518 9.54926 27.7844 9.54926 28.0514 9.28223Z" fill="#9150F8"/>
<path d="M6.94864 26.401L4.04817 29.3014C3.78114 29.5682 3.78114 30.001 4.04817 30.2681C4.3152 30.5351 4.74779 30.5351 5.01482 30.2681L7.91555 27.3676C8.18231 27.1006 8.18231 26.6677 7.91555 26.401C7.64852 26.1339 7.21567 26.1339 6.94864 26.401Z" fill="#9150F8"/>
<path d="M6.14106 22.4654C9.70349 25.478 13.6315 27.0703 17.4999 27.0703C21.3686 27.0703 25.2964 25.478 28.8588 22.4654C31.528 20.2082 33.0431 17.9756 33.1062 17.8816C33.2613 17.6509 33.2613 17.3491 33.1062 17.1184C33.0431 17.0247 31.528 14.7918 28.8588 12.5346C25.2964 9.52198 21.3686 7.92969 17.4999 7.92969C13.6315 7.92969 9.70349 9.52198 6.14106 12.5346C3.47211 14.7918 1.95699 17.0244 1.8937 17.1184C1.73856 17.3491 1.73856 17.6509 1.8937 17.8816C1.95699 17.9756 3.47211 20.2082 6.14106 22.4654ZM7.02386 13.5787C9.33366 11.6254 13.0261 9.29688 17.4999 9.29688C21.9601 9.29688 25.643 11.612 27.9472 13.5541C29.8503 15.1584 31.1571 16.7825 31.696 17.5005C31.1614 18.2135 29.869 19.8205 27.976 21.4213C25.6662 23.3746 21.9737 25.7031 17.4999 25.7031C13.0398 25.7031 9.35689 23.388 7.05297 21.4459C5.14958 19.8416 3.84248 18.2172 3.30415 17.4997C3.83847 16.7865 5.13089 15.1795 7.02386 13.5787Z" fill="#9150F8"/>
<path d="M17.5 23.6523C20.9134 23.6523 23.6523 20.8819 23.6523 17.5C23.6523 14.1077 20.8923 11.3477 17.5 11.3477C16.7817 11.3477 16.002 11.4793 15.2981 11.7535C14.9461 11.8903 14.7718 12.2865 14.9085 12.6385C15.0372 12.9696 15.3966 13.18 15.8596 13.0035C16.3803 12.8086 16.9635 12.7148 17.5 12.7148C20.1385 12.7148 22.2852 14.8615 22.2852 17.5C22.2852 20.1308 20.1521 22.2852 17.5 22.2852C14.8615 22.2852 12.7148 20.1385 12.7148 17.5C12.7148 17.1809 12.7431 16.9355 12.7939 16.6273C12.8641 16.2564 12.6203 15.901 12.2494 15.8303C11.8796 15.7603 11.5207 16.0052 11.4499 16.3758C11.38 16.747 11.3477 17.139 11.3477 17.5C11.3477 20.8923 14.1077 23.6523 17.5 23.6523Z" fill="#9150F8"/>
<path d="M20.2344 17.5C20.2344 15.9924 19.0076 14.7656 17.5 14.7656C15.9924 14.7656 14.7656 15.9924 14.7656 17.5C14.7656 19.0076 15.9924 20.2344 17.5 20.2344C19.0076 20.2344 20.2344 19.0076 20.2344 17.5ZM16.1328 17.5C16.1328 16.7462 16.7462 16.1328 17.5 16.1328C18.2538 16.1328 18.8672 16.7462 18.8672 17.5C18.8672 18.2538 18.2538 18.8672 17.5 18.8672C16.7462 18.8672 16.1328 18.2538 16.1328 17.5Z" fill="#9150F8"/>
</svg>
