<svg width="31" height="31" viewBox="0 0 31 31" fill="none" xmlns="http://www.w3.org/2000/svg">
<path d="M18.4063 10.3333V15.5C18.409 16.0987 18.648 16.672 19.0714 17.0954C19.4947 17.5187 20.068 17.7577 20.6667 17.7604H26.8021V20.6667C26.8025 21.1332 26.7108 21.5953 26.5324 22.0264C26.354 22.4575 26.0924 22.8492 25.7625 23.1791C25.4326 23.509 25.0409 23.7707 24.6098 23.9491C24.1787 24.1275 23.7166 24.2191 23.25 24.2188H11.8317C11.91 23.9018 11.9491 23.5765 11.948 23.25C11.948 22.1367 11.5057 21.0689 10.7184 20.2816C9.93116 19.4944 8.8634 19.0521 7.75004 19.0521C6.63669 19.0521 5.56893 19.4944 4.78167 20.2816C3.9944 21.0689 3.55213 22.1367 3.55213 23.25C3.55099 23.5765 3.59004 23.9018 3.66838 24.2188H2.58338C2.32697 24.2171 2.08155 24.1145 1.90024 23.9331C1.71893 23.7518 1.61632 23.5064 1.61462 23.25V5.16668C1.61429 4.70012 1.70593 4.23806 1.88432 3.80695C2.06271 3.37584 2.32434 2.98413 2.65425 2.65422C2.98416 2.32431 3.37587 2.06268 3.80698 1.88429C4.2381 1.7059 4.70015 1.61425 5.16671 1.61459H23.25C23.7166 1.61425 24.1787 1.7059 24.6098 1.88429C25.0409 2.06268 25.4326 2.32431 25.7625 2.65422C26.0924 2.98413 26.354 3.37584 26.5324 3.80695C26.7108 4.23806 26.8025 4.70012 26.8021 5.16668V8.07293H20.6667C20.068 8.07565 19.4947 8.31467 19.0714 8.73799C18.648 9.16131 18.409 9.73468 18.4063 10.3333Z" fill="#A3A3A3"/>
<path d="M7.75 17.1146C6.53726 17.1151 5.3519 17.4752 4.34376 18.1492C3.33561 18.8233 2.54995 19.7812 2.08609 20.9017C1.62223 22.0222 1.501 23.2551 1.73772 24.4445C1.97444 25.6339 2.55848 26.7265 3.41602 27.584C4.27356 28.4415 5.36608 29.0256 6.5555 29.2623C7.74491 29.499 8.9778 29.3778 10.0983 28.9139C11.2189 28.4501 12.1767 27.6644 12.8508 26.6563C13.5249 25.6481 13.8849 24.4628 13.8854 23.25C13.8841 21.6232 13.2372 20.0634 12.0869 18.9131C10.9366 17.7628 9.3768 17.116 7.75 17.1146ZM7.75 27.4479C6.8056 27.4473 5.889 27.1282 5.14835 26.5422C4.40771 25.9563 3.88628 25.1377 3.66834 24.2188C3.59 23.9018 3.55095 23.5765 3.55209 23.25C3.55209 22.1367 3.99437 21.0689 4.78163 20.2816C5.56889 19.4944 6.63665 19.0521 7.75 19.0521C8.86336 19.0521 9.93112 19.4944 10.7184 20.2816C11.5056 21.0689 11.9479 22.1367 11.9479 23.25C11.9491 23.5765 11.91 23.9018 11.8317 24.2188C11.6137 25.1377 11.0923 25.9563 10.3517 26.5422C9.611 27.1282 8.69441 27.4473 7.75 27.4479Z" fill="#A3A3A3"/>
<path d="M7.75 26.1562C7.49307 26.1562 7.24667 26.0542 7.06499 25.8725C6.88331 25.6908 6.78125 25.4444 6.78125 25.1875V21.3125C6.78125 21.0556 6.88331 20.8092 7.06499 20.6275C7.24667 20.4458 7.49307 20.3438 7.75 20.3438C8.00693 20.3438 8.25333 20.4458 8.43501 20.6275C8.61669 20.8092 8.71875 21.0556 8.71875 21.3125V25.1875C8.71875 25.4444 8.61669 25.6908 8.43501 25.8725C8.25333 26.0542 8.00693 26.1562 7.75 26.1562Z" fill="#A3A3A3"/>
<path d="M9.6875 24.2188H5.8125C5.55557 24.2188 5.30917 24.1167 5.12749 23.935C4.94581 23.7533 4.84375 23.5069 4.84375 23.25C4.84375 22.9931 4.94581 22.7467 5.12749 22.565C5.30917 22.3833 5.55557 22.2812 5.8125 22.2812H9.6875C9.94443 22.2812 10.1908 22.3833 10.3725 22.565C10.5542 22.7467 10.6562 22.9931 10.6562 23.25C10.6562 23.5069 10.5542 23.7533 10.3725 23.935C10.1908 24.1167 9.94443 24.2188 9.6875 24.2188Z" fill="#A3A3A3"/>
<path d="M27.125 9.36459H21.9583C20.7099 9.36459 19.6979 10.3766 19.6979 11.625V14.2083C19.6979 15.4567 20.7099 16.4688 21.9583 16.4688H27.125C28.3734 16.4688 29.3854 15.4567 29.3854 14.2083V11.625C29.3854 10.3766 28.3734 9.36459 27.125 9.36459Z" fill="#A3A3A3"/>
</svg>
