<svg width="1802" height="725" viewBox="0 0 1802 725" fill="none" xmlns="http://www.w3.org/2000/svg">
<mask id="path-1-outside-1_220_4" maskUnits="userSpaceOnUse" x="0" y="0" width="1802" height="725" fill="black">
<rect fill="white" width="1802" height="725"/>
<path d="M1798.44 645.349C1788.26 645.349 1780.01 637.099 1780.01 626.921C1780.01 616.744 1788.26 608.493 1798.44 608.493C1798.63 608.493 1798.81 608.516 1799 608.521V592.406C1798.81 592.412 1798.63 592.435 1798.44 592.435C1788.26 592.435 1780.01 584.184 1780.01 574.006C1780.01 563.829 1788.26 555.578 1798.44 555.578C1798.63 555.578 1798.81 555.601 1799 555.606V539.491C1798.81 539.497 1798.63 539.519 1798.44 539.519C1788.26 539.519 1780.01 531.269 1780.01 521.091C1780.01 510.914 1788.26 502.663 1798.44 502.663C1798.63 502.663 1798.81 502.686 1799 502.691V486.577C1798.81 486.582 1798.63 486.605 1798.44 486.605C1788.26 486.605 1780.01 478.354 1780.01 468.177C1780.01 457.999 1788.26 449.749 1798.44 449.749C1798.63 449.749 1798.81 449.771 1799 449.777V433.662C1798.81 433.668 1798.63 433.69 1798.44 433.69C1788.26 433.69 1780.01 425.44 1780.01 415.262C1780.01 405.084 1788.26 396.834 1798.44 396.834C1798.63 396.834 1798.81 396.856 1799 396.862V380.747C1798.81 380.752 1798.63 380.775 1798.44 380.775C1788.26 380.775 1780.01 372.525 1780.01 362.347C1780.01 352.17 1788.26 343.919 1798.44 343.919C1798.63 343.919 1798.81 343.941 1799 343.947V327.832C1798.81 327.838 1798.63 327.86 1798.44 327.86C1788.26 327.86 1780.01 319.61 1780.01 309.432C1780.01 299.255 1788.26 291.005 1798.44 291.005C1798.63 291.005 1798.81 291.027 1799 291.033V274.918C1798.81 274.923 1798.63 274.946 1798.44 274.946C1788.26 274.946 1780.01 266.695 1780.01 256.518C1780.01 246.34 1788.26 238.089 1798.44 238.089C1798.63 238.089 1798.81 238.112 1799 238.118V222.002C1798.81 222.008 1798.63 222.031 1798.44 222.031C1788.26 222.031 1780.01 213.78 1780.01 203.603C1780.01 193.425 1788.26 185.175 1798.44 185.175C1798.63 185.175 1798.81 185.197 1799 185.203V169.088C1798.81 169.093 1798.63 169.116 1798.44 169.116C1788.26 169.116 1780.01 160.865 1780.01 150.688C1780.01 140.51 1788.26 132.26 1798.44 132.26C1798.63 132.26 1798.81 132.282 1799 132.288V116.173C1798.81 116.178 1798.63 116.201 1798.44 116.201C1788.26 116.201 1780.01 107.951 1780.01 97.7727C1780.01 87.5952 1788.26 79.3448 1798.44 79.3448C1798.63 79.3448 1798.81 79.3672 1799 79.373V58.2843C1768.46 58.2843 1743.7 33.5326 1743.7 3H58.3022C58.3022 33.5326 33.5425 58.2843 3 58.2843V79.373C3.18706 79.3675 3.36998 79.3448 3.55842 79.3448C13.7393 79.3448 21.9926 87.5955 21.9926 97.7727C21.9926 107.95 13.7395 116.201 3.55842 116.201C3.36998 116.201 3.18706 116.179 3 116.173V132.288C3.18706 132.282 3.36998 132.26 3.55842 132.26C13.7393 132.26 21.9926 140.51 21.9926 150.688C21.9926 160.865 13.7395 169.116 3.55842 169.116C3.36998 169.116 3.18706 169.094 3 169.088V185.203C3.18706 185.197 3.36998 185.175 3.55842 185.175C13.7393 185.175 21.9926 193.425 21.9926 203.603C21.9926 213.78 13.7395 222.031 3.55842 222.031C3.36998 222.031 3.18706 222.008 3 222.002V238.117C3.18706 238.112 3.36998 238.089 3.55842 238.089C13.7393 238.089 21.9926 246.34 21.9926 256.517C21.9926 266.695 13.7395 274.946 3.55842 274.946C3.36998 274.946 3.18706 274.923 3 274.917V291.033C3.18706 291.027 3.36998 291.004 3.55842 291.004C13.7393 291.004 21.9926 299.255 21.9926 309.432C21.9926 319.61 13.7395 327.86 3.55842 327.86C3.36998 327.86 3.18706 327.838 3 327.832V343.947C3.18706 343.941 3.36998 343.919 3.55842 343.919C13.7393 343.919 21.9926 352.169 21.9926 362.347C21.9926 372.524 13.7395 380.775 3.55842 380.775C3.36998 380.775 3.18706 380.752 3 380.747V396.862C3.18706 396.856 3.36998 396.834 3.55842 396.834C13.7393 396.834 21.9926 405.084 21.9926 415.262C21.9926 425.439 13.7395 433.69 3.55842 433.69C3.36998 433.69 3.18706 433.667 3 433.662V449.777C3.18706 449.771 3.36998 449.748 3.55842 449.748C13.7393 449.748 21.9926 457.999 21.9926 468.176C21.9926 478.354 13.7395 486.604 3.55842 486.604C3.36998 486.604 3.18706 486.582 3 486.576V502.691C3.18706 502.686 3.36998 502.663 3.55842 502.663C13.7393 502.663 21.9926 510.914 21.9926 521.091C21.9926 531.268 13.7395 539.519 3.55842 539.519C3.36998 539.519 3.18706 539.497 3 539.491V555.606C3.18706 555.6 3.36998 555.578 3.55842 555.578C13.7393 555.578 21.9926 563.828 21.9926 574.006C21.9926 584.184 13.7395 592.434 3.55842 592.434C3.36998 592.434 3.18706 592.412 3 592.406V608.521C3.18706 608.515 3.36998 608.493 3.55842 608.493C13.7393 608.493 21.9926 616.743 21.9926 626.921C21.9926 637.098 13.7395 645.349 3.55842 645.349C3.36998 645.349 3.18706 645.327 3 645.321V666.41C33.5425 666.41 58.3022 691.161 58.3022 721.694H1743.7C1743.7 691.161 1768.46 666.41 1799 666.41V645.321C1798.81 645.327 1798.63 645.349 1798.44 645.349Z"/>
</mask>
<path d="M1798.44 645.349C1788.26 645.349 1780.01 637.099 1780.01 626.921C1780.01 616.744 1788.26 608.493 1798.44 608.493C1798.63 608.493 1798.81 608.516 1799 608.521V592.406C1798.81 592.412 1798.63 592.435 1798.44 592.435C1788.26 592.435 1780.01 584.184 1780.01 574.006C1780.01 563.829 1788.26 555.578 1798.44 555.578C1798.63 555.578 1798.81 555.601 1799 555.606V539.491C1798.81 539.497 1798.63 539.519 1798.44 539.519C1788.26 539.519 1780.01 531.269 1780.01 521.091C1780.01 510.914 1788.26 502.663 1798.44 502.663C1798.63 502.663 1798.81 502.686 1799 502.691V486.577C1798.81 486.582 1798.63 486.605 1798.44 486.605C1788.26 486.605 1780.01 478.354 1780.01 468.177C1780.01 457.999 1788.26 449.749 1798.44 449.749C1798.63 449.749 1798.81 449.771 1799 449.777V433.662C1798.81 433.668 1798.63 433.69 1798.44 433.69C1788.26 433.69 1780.01 425.44 1780.01 415.262C1780.01 405.084 1788.26 396.834 1798.44 396.834C1798.63 396.834 1798.81 396.856 1799 396.862V380.747C1798.81 380.752 1798.63 380.775 1798.44 380.775C1788.26 380.775 1780.01 372.525 1780.01 362.347C1780.01 352.17 1788.26 343.919 1798.44 343.919C1798.63 343.919 1798.81 343.941 1799 343.947V327.832C1798.81 327.838 1798.63 327.86 1798.44 327.86C1788.26 327.86 1780.01 319.61 1780.01 309.432C1780.01 299.255 1788.26 291.005 1798.44 291.005C1798.63 291.005 1798.81 291.027 1799 291.033V274.918C1798.81 274.923 1798.63 274.946 1798.44 274.946C1788.26 274.946 1780.01 266.695 1780.01 256.518C1780.01 246.34 1788.26 238.089 1798.44 238.089C1798.63 238.089 1798.81 238.112 1799 238.118V222.002C1798.81 222.008 1798.63 222.031 1798.44 222.031C1788.26 222.031 1780.01 213.78 1780.01 203.603C1780.01 193.425 1788.26 185.175 1798.44 185.175C1798.63 185.175 1798.81 185.197 1799 185.203V169.088C1798.81 169.093 1798.63 169.116 1798.44 169.116C1788.26 169.116 1780.01 160.865 1780.01 150.688C1780.01 140.51 1788.26 132.26 1798.44 132.26C1798.63 132.26 1798.81 132.282 1799 132.288V116.173C1798.81 116.178 1798.63 116.201 1798.44 116.201C1788.26 116.201 1780.01 107.951 1780.01 97.7727C1780.01 87.5952 1788.26 79.3448 1798.44 79.3448C1798.63 79.3448 1798.81 79.3672 1799 79.373V58.2843C1768.46 58.2843 1743.7 33.5326 1743.7 3H58.3022C58.3022 33.5326 33.5425 58.2843 3 58.2843V79.373C3.18706 79.3675 3.36998 79.3448 3.55842 79.3448C13.7393 79.3448 21.9926 87.5955 21.9926 97.7727C21.9926 107.95 13.7395 116.201 3.55842 116.201C3.36998 116.201 3.18706 116.179 3 116.173V132.288C3.18706 132.282 3.36998 132.26 3.55842 132.26C13.7393 132.26 21.9926 140.51 21.9926 150.688C21.9926 160.865 13.7395 169.116 3.55842 169.116C3.36998 169.116 3.18706 169.094 3 169.088V185.203C3.18706 185.197 3.36998 185.175 3.55842 185.175C13.7393 185.175 21.9926 193.425 21.9926 203.603C21.9926 213.78 13.7395 222.031 3.55842 222.031C3.36998 222.031 3.18706 222.008 3 222.002V238.117C3.18706 238.112 3.36998 238.089 3.55842 238.089C13.7393 238.089 21.9926 246.34 21.9926 256.517C21.9926 266.695 13.7395 274.946 3.55842 274.946C3.36998 274.946 3.18706 274.923 3 274.917V291.033C3.18706 291.027 3.36998 291.004 3.55842 291.004C13.7393 291.004 21.9926 299.255 21.9926 309.432C21.9926 319.61 13.7395 327.86 3.55842 327.86C3.36998 327.86 3.18706 327.838 3 327.832V343.947C3.18706 343.941 3.36998 343.919 3.55842 343.919C13.7393 343.919 21.9926 352.169 21.9926 362.347C21.9926 372.524 13.7395 380.775 3.55842 380.775C3.36998 380.775 3.18706 380.752 3 380.747V396.862C3.18706 396.856 3.36998 396.834 3.55842 396.834C13.7393 396.834 21.9926 405.084 21.9926 415.262C21.9926 425.439 13.7395 433.69 3.55842 433.69C3.36998 433.69 3.18706 433.667 3 433.662V449.777C3.18706 449.771 3.36998 449.748 3.55842 449.748C13.7393 449.748 21.9926 457.999 21.9926 468.176C21.9926 478.354 13.7395 486.604 3.55842 486.604C3.36998 486.604 3.18706 486.582 3 486.576V502.691C3.18706 502.686 3.36998 502.663 3.55842 502.663C13.7393 502.663 21.9926 510.914 21.9926 521.091C21.9926 531.268 13.7395 539.519 3.55842 539.519C3.36998 539.519 3.18706 539.497 3 539.491V555.606C3.18706 555.6 3.36998 555.578 3.55842 555.578C13.7393 555.578 21.9926 563.828 21.9926 574.006C21.9926 584.184 13.7395 592.434 3.55842 592.434C3.36998 592.434 3.18706 592.412 3 592.406V608.521C3.18706 608.515 3.36998 608.493 3.55842 608.493C13.7393 608.493 21.9926 616.743 21.9926 626.921C21.9926 637.098 13.7395 645.349 3.55842 645.349C3.36998 645.349 3.18706 645.327 3 645.321V666.41C33.5425 666.41 58.3022 691.161 58.3022 721.694H1743.7C1743.7 691.161 1768.46 666.41 1799 666.41V645.321C1798.81 645.327 1798.63 645.349 1798.44 645.349Z" fill="#0B070E"/>
<path d="M1798.44 645.349C1788.26 645.349 1780.01 637.099 1780.01 626.921C1780.01 616.744 1788.26 608.493 1798.44 608.493C1798.63 608.493 1798.81 608.516 1799 608.521V592.406C1798.81 592.412 1798.63 592.435 1798.44 592.435C1788.26 592.435 1780.01 584.184 1780.01 574.006C1780.01 563.829 1788.26 555.578 1798.44 555.578C1798.63 555.578 1798.81 555.601 1799 555.606V539.491C1798.81 539.497 1798.63 539.519 1798.44 539.519C1788.26 539.519 1780.01 531.269 1780.01 521.091C1780.01 510.914 1788.26 502.663 1798.44 502.663C1798.63 502.663 1798.81 502.686 1799 502.691V486.577C1798.81 486.582 1798.63 486.605 1798.44 486.605C1788.26 486.605 1780.01 478.354 1780.01 468.177C1780.01 457.999 1788.26 449.749 1798.44 449.749C1798.63 449.749 1798.81 449.771 1799 449.777V433.662C1798.81 433.668 1798.63 433.69 1798.44 433.69C1788.26 433.69 1780.01 425.44 1780.01 415.262C1780.01 405.084 1788.26 396.834 1798.44 396.834C1798.63 396.834 1798.81 396.856 1799 396.862V380.747C1798.81 380.752 1798.63 380.775 1798.44 380.775C1788.26 380.775 1780.01 372.525 1780.01 362.347C1780.01 352.17 1788.26 343.919 1798.44 343.919C1798.63 343.919 1798.81 343.941 1799 343.947V327.832C1798.81 327.838 1798.63 327.86 1798.44 327.86C1788.26 327.86 1780.01 319.61 1780.01 309.432C1780.01 299.255 1788.26 291.005 1798.44 291.005C1798.63 291.005 1798.81 291.027 1799 291.033V274.918C1798.81 274.923 1798.63 274.946 1798.44 274.946C1788.26 274.946 1780.01 266.695 1780.01 256.518C1780.01 246.34 1788.26 238.089 1798.44 238.089C1798.63 238.089 1798.81 238.112 1799 238.118V222.002C1798.81 222.008 1798.63 222.031 1798.44 222.031C1788.26 222.031 1780.01 213.78 1780.01 203.603C1780.01 193.425 1788.26 185.175 1798.44 185.175C1798.63 185.175 1798.81 185.197 1799 185.203V169.088C1798.81 169.093 1798.63 169.116 1798.44 169.116C1788.26 169.116 1780.01 160.865 1780.01 150.688C1780.01 140.51 1788.26 132.26 1798.44 132.26C1798.63 132.26 1798.81 132.282 1799 132.288V116.173C1798.81 116.178 1798.63 116.201 1798.44 116.201C1788.26 116.201 1780.01 107.951 1780.01 97.7727C1780.01 87.5952 1788.26 79.3448 1798.44 79.3448C1798.63 79.3448 1798.81 79.3672 1799 79.373V58.2843C1768.46 58.2843 1743.7 33.5326 1743.7 3H58.3022C58.3022 33.5326 33.5425 58.2843 3 58.2843V79.373C3.18706 79.3675 3.36998 79.3448 3.55842 79.3448C13.7393 79.3448 21.9926 87.5955 21.9926 97.7727C21.9926 107.95 13.7395 116.201 3.55842 116.201C3.36998 116.201 3.18706 116.179 3 116.173V132.288C3.18706 132.282 3.36998 132.26 3.55842 132.26C13.7393 132.26 21.9926 140.51 21.9926 150.688C21.9926 160.865 13.7395 169.116 3.55842 169.116C3.36998 169.116 3.18706 169.094 3 169.088V185.203C3.18706 185.197 3.36998 185.175 3.55842 185.175C13.7393 185.175 21.9926 193.425 21.9926 203.603C21.9926 213.78 13.7395 222.031 3.55842 222.031C3.36998 222.031 3.18706 222.008 3 222.002V238.117C3.18706 238.112 3.36998 238.089 3.55842 238.089C13.7393 238.089 21.9926 246.34 21.9926 256.517C21.9926 266.695 13.7395 274.946 3.55842 274.946C3.36998 274.946 3.18706 274.923 3 274.917V291.033C3.18706 291.027 3.36998 291.004 3.55842 291.004C13.7393 291.004 21.9926 299.255 21.9926 309.432C21.9926 319.61 13.7395 327.86 3.55842 327.86C3.36998 327.86 3.18706 327.838 3 327.832V343.947C3.18706 343.941 3.36998 343.919 3.55842 343.919C13.7393 343.919 21.9926 352.169 21.9926 362.347C21.9926 372.524 13.7395 380.775 3.55842 380.775C3.36998 380.775 3.18706 380.752 3 380.747V396.862C3.18706 396.856 3.36998 396.834 3.55842 396.834C13.7393 396.834 21.9926 405.084 21.9926 415.262C21.9926 425.439 13.7395 433.69 3.55842 433.69C3.36998 433.69 3.18706 433.667 3 433.662V449.777C3.18706 449.771 3.36998 449.748 3.55842 449.748C13.7393 449.748 21.9926 457.999 21.9926 468.176C21.9926 478.354 13.7395 486.604 3.55842 486.604C3.36998 486.604 3.18706 486.582 3 486.576V502.691C3.18706 502.686 3.36998 502.663 3.55842 502.663C13.7393 502.663 21.9926 510.914 21.9926 521.091C21.9926 531.268 13.7395 539.519 3.55842 539.519C3.36998 539.519 3.18706 539.497 3 539.491V555.606C3.18706 555.6 3.36998 555.578 3.55842 555.578C13.7393 555.578 21.9926 563.828 21.9926 574.006C21.9926 584.184 13.7395 592.434 3.55842 592.434C3.36998 592.434 3.18706 592.412 3 592.406V608.521C3.18706 608.515 3.36998 608.493 3.55842 608.493C13.7393 608.493 21.9926 616.743 21.9926 626.921C21.9926 637.098 13.7395 645.349 3.55842 645.349C3.36998 645.349 3.18706 645.327 3 645.321V666.41C33.5425 666.41 58.3022 691.161 58.3022 721.694H1743.7C1743.7 691.161 1768.46 666.41 1799 666.41V645.321C1798.81 645.327 1798.63 645.349 1798.44 645.349Z" stroke="white" stroke-width="6" mask="url(#path-1-outside-1_220_4)"/>
</svg>
